<?xml version="1.0" encoding="utf-8"?>
<!-- Generator: Adobe Illustrator 28.2.0, SVG Export Plug-In . SVG Version: 6.00 Build 0)  -->
<svg version="1.1" id="Capa_1" xmlns="http://www.w3.org/2000/svg" xmlns:xlink="http://www.w3.org/1999/xlink" x="0px" y="0px"
	 viewBox="0 0 1015 420" style="enable-background:new 0 0 1015 420;" xml:space="preserve">
<style type="text/css">
	.st0{fill:#FFFFFF;}
</style>
<path class="st0" d="M210.2,403c35.9,0,71.1-10.1,101.7-29c30.5-18.9,55.2-46,71.2-78.1h18.6c-19.7,43.9-53.8,79.6-96.7,101.4
	c-42.9,21.7-91.9,28.1-138.9,18c-47-10.1-89.1-35.9-119.4-73.3S0,258.1,0,210c0-48.1,16.5-94.7,46.7-132
	c30.2-37.4,72.4-63.2,119.4-73.3s96-3.7,138.9,18s77,57.5,96.7,101.4h-18.6c-15.3-30.9-38.6-57.1-67.4-75.9s-62.2-29.6-96.6-31.3
	c-34.4-1.6-68.6,6-99.1,22c-30.5,16-56.1,39.9-74.3,69.2c-18.1,29.3-28.1,62.9-28.9,97.3c-0.8,34.4,7.6,68.5,24.4,98.5
	c16.8,30.1,41.3,55.1,71,72.6C141.9,393.9,175.7,403.1,210.2,403z M548,130.9h-28.1v-15h25.2v-12.4h-25.2V89.3h27.6V76.8h-40.8v66.9
	H548V130.9z M615.5,124.1c0,2.7-0.5,5.3-1.6,7.8c-1.1,2.5-2.6,4.7-4.6,6.5c-1.9,1.8-4.3,3.3-6.8,4.2c-2.5,0.9-5.2,1.3-7.9,1.1h-28.4
	V76.8h26.2c2.6-0.2,5.2,0.2,7.6,1.1c2.4,0.9,4.7,2.2,6.6,4c1.9,1.8,3.4,3.9,4.5,6.2c1.1,2.4,1.6,4.9,1.7,7.5c0,2.5-0.6,5-1.7,7.3
	c-1.1,2.3-2.8,4.2-4.8,5.8c2.8,1.5,5.2,3.7,6.8,6.4C614.7,117.8,615.5,120.9,615.5,124.1z M579.5,103.6h13.1c1.9,0,3.8-0.8,5.2-2.1
	c1.4-1.4,2.1-3.2,2.1-5.2c0-1.9-0.8-3.8-2.1-5.2c-1.4-1.4-3.2-2.1-5.2-2.1h-13.1V103.6z M579.5,131.1h15.2c2.1,0,4.1-0.8,5.5-2.3
	c1.5-1.5,2.3-3.5,2.3-5.5c0-2.1-0.8-4.1-2.3-5.5s-3.5-2.3-5.5-2.3h-15.2V131.1z M660.6,144.8c5.8,0.1,11.4-1.3,16.5-4.1
	c5-2.8,9.3-6.8,12.3-11.7l-11.4-6.5c-1.8,3-4.4,5.4-7.4,7.1c-3.1,1.7-6.5,2.5-10,2.4c-2.9,0.1-5.8-0.3-8.5-1.4
	c-2.7-1-5.2-2.7-7.2-4.7c-2-2.1-3.6-4.5-4.7-7.2c-1-2.7-1.5-5.6-1.3-8.5c-0.2-2.9,0.3-5.8,1.3-8.5c1-2.7,2.6-5.2,4.6-7.3
	c2-2.1,4.5-3.7,7.2-4.7c2.7-1.1,5.6-1.5,8.5-1.4c3.4,0,6.8,0.9,9.8,2.6c3,1.7,5.5,4.2,7.2,7.1l11.4-6.5c-3-4.9-7.3-8.9-12.3-11.7
	c-5-2.8-10.7-4.2-16.5-4.1c-4.6-0.1-9.2,0.7-13.4,2.4c-4.3,1.7-8.1,4.3-11.4,7.5c-3.2,3.2-5.8,7.1-7.5,11.4
	c-1.7,4.3-2.5,8.8-2.4,13.4c-0.1,4.6,0.7,9.1,2.4,13.4c1.7,4.3,4.2,8.1,7.5,11.4c3.2,3.2,7.1,5.8,11.4,7.5c4.3,1.7,8.8,2.5,13.4,2.4
	 M513.3,213.7h29.6v-6.5h-29.6v-24.3h31v-6.5h-37.7v66.9h6.5L513.3,213.7z M564.8,243.3h6.5v-66.9h-6.5V243.3z M643.9,176.4h-6.5
	v54.3L600,176.4h-5.7v66.9h6.5v-54.4l37.2,54.4h5.7L643.9,176.4z M693.3,176.4l25.7,66.8h-7.1l-6.5-16.4h-31.7l-6.5,16.4h-6.5
	l25.6-66.8H693.3z M703.3,220.4l-13.1-35.7l-13.5,35.7H703.3z M776.9,230.7l-37.5-54.3h-5.8v66.9h6.5v-54.4l37.2,54.4h5.8v-66.9
	h-6.5L776.9,230.7z M836.6,181.7c4.7-0.1,9.3,1.1,13.4,3.5c4.1,2.4,7.4,5.8,9.6,9.9l5.9-3.5c-2.9-5.1-7.1-9.3-12.2-12.2
	c-5.1-2.9-10.8-4.4-16.7-4.3c-9.2,0-17.9,3.6-24.4,10.1c-6.5,6.5-10.1,15.3-10.1,24.4s3.6,17.9,10.1,24.4
	c6.5,6.5,15.3,10.1,24.4,10.1c5.8,0.1,11.6-1.4,16.7-4.3c5.1-2.9,9.3-7.1,12.2-12.2l-5.9-3.3c-2.3,4.1-5.6,7.4-9.7,9.7
	c-4.1,2.3-8.7,3.5-13.3,3.4c-7.4,0-14.6-3-19.8-8.2c-5.3-5.3-8.2-12.4-8.2-19.8c0-7.4,3-14.6,8.2-19.8c5.3-5.3,12.4-8.2,19.8-8.2
	 M882.4,242.9h6.5v-66.5h-6.5V242.9z M936.8,176.4l25.6,66.8h-7.1l-6.5-16.4h-31.3l-6.5,16.4h-7.1l26-66.8H936.8z M946.8,220.4
	l-13.5-35.7l-13.5,35.7H946.8z M983.6,236.8v-60.4h-6.5v66.9h37.2v-6.5H983.6z M533.4,317.6h26.2c-1.2,11.2-10.2,20.1-25.7,20.1
	c-7.4,0-14.6-3-19.8-8.2c-5.3-5.3-8.2-12.4-8.2-19.8s3-14.6,8.2-19.8c5.3-5.3,12.4-8.2,19.8-8.2c4.7-0.1,9.2,1.1,13.3,3.4
	c4,2.3,7.4,5.7,9.7,9.7l6-3.4c-2.9-5.1-7.1-9.3-12.2-12.2c-5.1-2.9-10.8-4.4-16.7-4.3c-9.2,0-17.9,3.6-24.4,10.1
	c-6.5,6.5-10.1,15.3-10.1,24.4c0,9.2,3.6,17.9,10.1,24.4c6.5,6.5,15.3,10.1,24.4,10.1c20.5,0,32.7-13.5,32.7-29.5v-3.4h-33.3
	L533.4,317.6z M631.5,296.4c0,4.3-1.4,8.5-4,12c-2.6,3.5-6.2,6-10.4,7.2l16.3,27.5h-7.6l-15.6-26.7h-18.7v26.7h-6.5v-66.8h26.7
	c2.6,0,5.2,0.5,7.7,1.5c2.4,1,4.6,2.5,6.5,4.4s3.3,4.1,4.3,6.5C631,291.2,631.5,293.8,631.5,296.4 M611.5,310.1c3.6,0,7.1-1.4,9.7-4
	s4-6.1,4-9.7c0-3.6-1.4-7.1-4-9.7c-2.6-2.6-6.1-4-9.7-4h-20.1v27.5H611.5z M677.7,275.2c6.8,0,13.5,2,19.2,5.8
	c5.7,3.8,10.1,9.2,12.7,15.5c2.6,6.3,3.3,13.2,2,19.9c-1.3,6.7-4.6,12.8-9.4,17.7c-4.8,4.8-11,8.1-17.7,9.4
	c-6.7,1.3-13.6,0.6-19.9-2c-6.3-2.6-11.7-7-15.5-12.7c-3.8-5.7-5.8-12.4-5.8-19.2c0-4.5,0.8-9,2.6-13.3c1.7-4.2,4.3-8,7.5-11.2
	c3.2-3.2,7-5.8,11.2-7.5C668.7,276.1,673.2,275.2,677.7,275.2z M677.7,337.8c5.6,0,11-1.6,15.6-4.6c4.6-3.1,8.3-7.4,10.4-12.5
	c2.2-5.1,2.7-10.8,1.7-16.2c-1.1-5.5-3.7-10.5-7.6-14.4c-3.9-3.9-8.9-6.6-14.4-7.7c-5.4-1.1-11.1-0.6-16.2,1.6
	c-5.1,2.1-9.5,5.7-12.6,10.3c-3.1,4.6-4.7,10-4.7,15.6c-0.1,3.7,0.6,7.3,2,10.8c1.4,3.4,3.4,6.5,6,9.1s5.7,4.7,9.1,6.1
	C670.4,337.1,674,337.8,677.7,337.8z M769.8,320.2c0,4.8-1.9,9.4-5.3,12.8s-8,5.3-12.8,5.3c-4.8,0-9.4-1.9-12.8-5.3
	c-3.4-3.4-5.3-8-5.3-12.8v-43.9h-6.5v43.9c0.3,6.4,3.1,12.4,7.7,16.7c4.6,4.4,10.7,6.8,17.1,6.8c6.4,0,12.5-2.4,17.1-6.8
	c4.6-4.4,7.4-10.4,7.7-16.7v-43.9h-6.5L769.8,320.2z M820.3,276.1c5.6,0,10.9,2.2,14.8,6.1c3.9,3.9,6.1,9.3,6.1,14.8
	c0,5.6-2.2,10.9-6.1,14.8c-3.9,3.9-9.3,6.1-14.8,6.1h-17.1v25h-6.5v-66.8h23.8 M820.4,312c3.7-0.2,7.2-1.9,9.8-4.6
	c2.5-2.7,4-6.3,4-10s-1.4-7.3-4-10c-2.5-2.7-6-4.4-9.8-4.6h-17.1V312H820.4z M191.4,140.5h34.7v-16.5h-34.7V140.5z M319.7,120.9
	c5.3,13.2,6.6,27.7,3.7,41.7c-2.9,14-9.9,26.7-20,36.8L293,209.7l10.3,10.3c10.2,10,17.1,22.8,20,36.8c2.9,14,1.6,28.5-3.7,41.7
	c-4.8,13-13.4,24.3-24.6,32.4s-24.6,12.8-38.4,13.4h-3.9h-90.8V230.8h16.8v48.3h47.3v16.8h-47.3v31.5h77.2
	c10.6-0.4,20.8-3.9,29.4-10.1c8.6-6.2,15.1-14.9,18.7-24.8c4.1-10.2,5.1-21.4,2.9-32.1c-2.2-10.8-7.6-20.6-15.4-28.3l-10.1-10.3
	l-28.9,28.8l-40.7-40.7l40.7-40.7l20,19.9l-11.9,11.9l-8.1-8.1l-16.9,17l17,17l4.7-4.7l27.1-27.1l7.4-7.4
	c7.8-7.7,13.2-17.6,15.4-28.3c2.2-10.8,1.2-21.9-2.9-32.1c-3.6-10-10.1-18.6-18.7-24.8c-8.6-6.2-18.8-9.7-29.4-10.1h-77.4v109.2
	h20.1v16.9H110v60.9h39.2V296h-56V124.1h68.7V75.4h90.8h3.9c13.8,0.6,27.2,5.2,38.4,13.4s19.8,19.4,24.6,32.4 M161.9,140.8h-52v60.9
	h52.3L161.9,140.8z M431.7,209.1c-8.2-0.2-15.9-3.5-21.7-9.3c-5.8-5.8-9.1-13.5-9.3-21.7c0-0.3-0.1-0.5-0.3-0.7
	c-0.2-0.2-0.5-0.3-0.7-0.3c-0.3,0-0.5,0.1-0.7,0.3c-0.2,0.2-0.3,0.5-0.3,0.7c-0.2,8.2-3.6,16-9.5,21.8c-5.8,5.8-13.7,9.1-21.9,9.2
	c-0.3,0-0.5,0.1-0.7,0.3c-0.2,0.2-0.3,0.5-0.3,0.7c0,0.3,0.1,0.5,0.3,0.7c0.2,0.2,0.5,0.3,0.7,0.3c8.1,0.2,15.8,3.5,21.6,9.2
	c5.8,5.7,9.2,13.3,9.5,21.4c0,0.3,0.1,0.5,0.3,0.7c0.2,0.2,0.5,0.3,0.7,0.3c0.3,0,0.5-0.1,0.7-0.3c0.2-0.2,0.3-0.5,0.3-0.7
	c0.3-8.2,3.6-16,9.5-21.7c5.8-5.7,13.7-9,21.8-9.2c0.2-0.1,0.3-0.2,0.4-0.4c0.1-0.2,0.1-0.3,0.1-0.5c0-0.2,0-0.4-0.1-0.5
	C432,209.3,431.9,209.1,431.7,209.1z"/>
</svg>
